# xmcd CD database file
#
# Track frame offsets:
#	150
#	17713
#	34745
#	50106
#	69693
#	87099
#	100704
#	117307
#	134000
#	148021
#	161906
#	180003
#	195507
#	213181
#	229249
#	246001
#	259914
#	273784
#	293190
#	309654
#	324844
#
# Disc length: 4565 seconds
#
# Revision: 0
# Processed by: cddbd v1.4PL0 Copyright (c) Steve Scherf et al.
# Submitted via: CDex 1.40Release
#
DISCID=2e11d315
DTITLE=KaoticEvil - Country Mix
DYEAR=1900
DGENRE=Country
TTITLE0=Standing Outside The Fire
TTITLE1=Where The Stars And Stripes
TTITLE2=If You're Gonna Play In Texas
TTITLE3=Friends In Low Places
TTITLE4=Life Is A Highway
TTITLE5=My Heart Is Lost To You
TTITLE6=The Devil Went Down To Georgia
TTITLE7=The Dance
TTITLE8=My Love Goes On and On
TTITLE9=Desperado
TTITLE10=Cold Hearted
TTITLE11=Little Red Rodeo
TTITLE12=Rodeo
TTITLE13=I Miss My Friend
TTITLE14=Beautiful Mess
TTITLE15=I Should Be Sleeping
TTITLE16=Beer Run
TTITLE17=Country Boy Will Survive
TTITLE18=Mr. Bojangles
TTITLE19=The Good Stuff
TTITLE20=Somebody Like You
EXTD=ID3G: 2
EXTT0=
EXTT1=
EXTT2=
EXTT3=
EXTT4=
EXTT5=
EXTT6=
EXTT7=
EXTT8=
EXTT9=
EXTT10=
EXTT11=
EXTT12=
EXTT13=
EXTT14=
EXTT15=
EXTT16=
EXTT17=
EXTT18=
EXTT19=
EXTT20=
PLAYORDER=
